%TF.GenerationSoftware,KiCad,Pcbnew,8.0.1*%
%TF.CreationDate,2024-09-19T19:56:23+03:00*%
%TF.ProjectId,Nodes,4e6f6465-732e-46b6-9963-61645f706362,rev?*%
%TF.SameCoordinates,Original*%
%TF.FileFunction,Paste,Bot*%
%TF.FilePolarity,Positive*%
%FSLAX46Y46*%
G04 Gerber Fmt 4.6, Leading zero omitted, Abs format (unit mm)*
G04 Created by KiCad (PCBNEW 8.0.1) date 2024-09-19 19:56:23*
%MOMM*%
%LPD*%
G01*
G04 APERTURE LIST*
G04 Aperture macros list*
%AMRoundRect*
0 Rectangle with rounded corners*
0 $1 Rounding radius*
0 $2 $3 $4 $5 $6 $7 $8 $9 X,Y pos of 4 corners*
0 Add a 4 corners polygon primitive as box body*
4,1,4,$2,$3,$4,$5,$6,$7,$8,$9,$2,$3,0*
0 Add four circle primitives for the rounded corners*
1,1,$1+$1,$2,$3*
1,1,$1+$1,$4,$5*
1,1,$1+$1,$6,$7*
1,1,$1+$1,$8,$9*
0 Add four rect primitives between the rounded corners*
20,1,$1+$1,$2,$3,$4,$5,0*
20,1,$1+$1,$4,$5,$6,$7,0*
20,1,$1+$1,$6,$7,$8,$9,0*
20,1,$1+$1,$8,$9,$2,$3,0*%
G04 Aperture macros list end*
%ADD10R,0.600000X1.250000*%
%ADD11RoundRect,0.075000X-0.700000X-0.075000X0.700000X-0.075000X0.700000X0.075000X-0.700000X0.075000X0*%
%ADD12RoundRect,0.075000X-0.075000X-0.700000X0.075000X-0.700000X0.075000X0.700000X-0.075000X0.700000X0*%
%ADD13RoundRect,0.250000X0.450000X-0.350000X0.450000X0.350000X-0.450000X0.350000X-0.450000X-0.350000X0*%
%ADD14RoundRect,0.250000X-0.475000X0.337500X-0.475000X-0.337500X0.475000X-0.337500X0.475000X0.337500X0*%
%ADD15RoundRect,0.250000X0.337500X0.475000X-0.337500X0.475000X-0.337500X-0.475000X0.337500X-0.475000X0*%
%ADD16RoundRect,0.250000X0.475000X-0.337500X0.475000X0.337500X-0.475000X0.337500X-0.475000X-0.337500X0*%
%ADD17RoundRect,0.250000X0.350000X0.450000X-0.350000X0.450000X-0.350000X-0.450000X0.350000X-0.450000X0*%
%ADD18RoundRect,0.250000X-0.337500X-0.475000X0.337500X-0.475000X0.337500X0.475000X-0.337500X0.475000X0*%
%ADD19RoundRect,0.250000X-0.450000X0.325000X-0.450000X-0.325000X0.450000X-0.325000X0.450000X0.325000X0*%
%ADD20RoundRect,0.250000X-0.450000X0.350000X-0.450000X-0.350000X0.450000X-0.350000X0.450000X0.350000X0*%
%ADD21RoundRect,0.250000X0.450000X-0.325000X0.450000X0.325000X-0.450000X0.325000X-0.450000X-0.325000X0*%
%ADD22R,0.622130X2.469160*%
%ADD23RoundRect,0.311065X0.000010X-0.923515X0.000010X0.923515X-0.000010X0.923515X-0.000010X-0.923515X0*%
%ADD24R,1.528000X0.650000*%
%ADD25R,1.200000X0.600000*%
%ADD26RoundRect,0.250000X1.500000X0.650000X-1.500000X0.650000X-1.500000X-0.650000X1.500000X-0.650000X0*%
%ADD27RoundRect,0.250000X0.325000X0.450000X-0.325000X0.450000X-0.325000X-0.450000X0.325000X-0.450000X0*%
%ADD28RoundRect,0.250000X-0.325000X-0.450000X0.325000X-0.450000X0.325000X0.450000X-0.325000X0.450000X0*%
%ADD29RoundRect,0.250000X-0.350000X-0.450000X0.350000X-0.450000X0.350000X0.450000X-0.350000X0.450000X0*%
%ADD30RoundRect,0.250000X-0.650000X1.500000X-0.650000X-1.500000X0.650000X-1.500000X0.650000X1.500000X0*%
%ADD31R,1.400000X0.600000*%
%ADD32R,2.469160X0.622130*%
%ADD33RoundRect,0.311065X-0.923515X-0.000010X0.923515X-0.000010X0.923515X0.000010X-0.923515X0.000010X0*%
%ADD34R,1.200000X1.400000*%
%ADD35R,1.150000X0.600000*%
%ADD36R,0.300000X1.500000*%
%ADD37R,3.910000X2.800000*%
G04 APERTURE END LIST*
D10*
%TO.C,Q1*%
X162651100Y-78803600D03*
X160751100Y-78803600D03*
X161701100Y-76703600D03*
%TD*%
%TO.C,Q2*%
X168551100Y-78753600D03*
X166651100Y-78753600D03*
X167601100Y-76653600D03*
%TD*%
D11*
%TO.C,U11*%
X128326100Y-106253600D03*
X128326100Y-105753600D03*
X128326100Y-105253600D03*
X128326100Y-104753600D03*
X128326100Y-104253600D03*
X128326100Y-103753600D03*
X128326100Y-103253600D03*
X128326100Y-102753600D03*
X128326100Y-102253600D03*
X128326100Y-101753600D03*
X128326100Y-101253600D03*
X128326100Y-100753600D03*
X128326100Y-100253600D03*
X128326100Y-99753600D03*
X128326100Y-99253600D03*
X128326100Y-98753600D03*
D12*
X130251100Y-96828600D03*
X130751100Y-96828600D03*
X131251100Y-96828600D03*
X131751100Y-96828600D03*
X132251100Y-96828600D03*
X132751100Y-96828600D03*
X133251100Y-96828600D03*
X133751100Y-96828600D03*
X134251100Y-96828600D03*
X134751100Y-96828600D03*
X135251100Y-96828600D03*
X135751100Y-96828600D03*
X136251100Y-96828600D03*
X136751100Y-96828600D03*
X137251100Y-96828600D03*
X137751100Y-96828600D03*
D11*
X139676100Y-98753600D03*
X139676100Y-99253600D03*
X139676100Y-99753600D03*
X139676100Y-100253600D03*
X139676100Y-100753600D03*
X139676100Y-101253600D03*
X139676100Y-101753600D03*
X139676100Y-102253600D03*
X139676100Y-102753600D03*
X139676100Y-103253600D03*
X139676100Y-103753600D03*
X139676100Y-104253600D03*
X139676100Y-104753600D03*
X139676100Y-105253600D03*
X139676100Y-105753600D03*
X139676100Y-106253600D03*
D12*
X137751100Y-108178600D03*
X137251100Y-108178600D03*
X136751100Y-108178600D03*
X136251100Y-108178600D03*
X135751100Y-108178600D03*
X135251100Y-108178600D03*
X134751100Y-108178600D03*
X134251100Y-108178600D03*
X133751100Y-108178600D03*
X133251100Y-108178600D03*
X132751100Y-108178600D03*
X132251100Y-108178600D03*
X131751100Y-108178600D03*
X131251100Y-108178600D03*
X130751100Y-108178600D03*
X130251100Y-108178600D03*
%TD*%
D13*
%TO.C,R48*%
X159951100Y-123503600D03*
X159951100Y-121503600D03*
%TD*%
D14*
%TO.C,C82*%
X119501100Y-91766100D03*
X119501100Y-93841100D03*
%TD*%
D15*
%TO.C,C19*%
X157838600Y-118053600D03*
X155763600Y-118053600D03*
%TD*%
%TO.C,C78*%
X145538600Y-83203600D03*
X143463600Y-83203600D03*
%TD*%
D13*
%TO.C,R25*%
X173701100Y-119403600D03*
X173701100Y-117403600D03*
%TD*%
D16*
%TO.C,C71*%
X107401100Y-87541100D03*
X107401100Y-85466100D03*
%TD*%
D17*
%TO.C,R97*%
X130901100Y-76803600D03*
X128901100Y-76803600D03*
%TD*%
D18*
%TO.C,C48*%
X117563600Y-118103600D03*
X119638600Y-118103600D03*
%TD*%
D19*
%TO.C,L26*%
X138201100Y-81378600D03*
X138201100Y-83428600D03*
%TD*%
D20*
%TO.C,R22*%
X171601100Y-109303600D03*
X171601100Y-111303600D03*
%TD*%
D18*
%TO.C,C29*%
X160463600Y-118103600D03*
X162538600Y-118103600D03*
%TD*%
D15*
%TO.C,C22*%
X120238600Y-107703600D03*
X118163600Y-107703600D03*
%TD*%
D13*
%TO.C,R64*%
X147801100Y-88803600D03*
X147801100Y-86803600D03*
%TD*%
D15*
%TO.C,C16*%
X134638600Y-93103600D03*
X132563600Y-93103600D03*
%TD*%
D19*
%TO.C,L25*%
X133001100Y-76378600D03*
X133001100Y-78428600D03*
%TD*%
D20*
%TO.C,R9*%
X173701100Y-99903600D03*
X173701100Y-101903600D03*
%TD*%
D21*
%TO.C,L28*%
X107301100Y-97828600D03*
X107301100Y-95778600D03*
%TD*%
D20*
%TO.C,R62*%
X150401100Y-86803600D03*
X150401100Y-88803600D03*
%TD*%
%TO.C,R37*%
X114901100Y-108803600D03*
X114901100Y-110803600D03*
%TD*%
D17*
%TO.C,R104*%
X105101100Y-88903600D03*
X103101100Y-88903600D03*
%TD*%
D14*
%TO.C,C61*%
X153301100Y-76766100D03*
X153301100Y-78841100D03*
%TD*%
D17*
%TO.C,R117*%
X172601100Y-78803600D03*
X170601100Y-78803600D03*
%TD*%
%TO.C,R81*%
X118601100Y-72203600D03*
X116601100Y-72203600D03*
%TD*%
D16*
%TO.C,C80*%
X145101100Y-88441100D03*
X145101100Y-86366100D03*
%TD*%
D22*
%TO.C,U10*%
X113306090Y-99117180D03*
D23*
X112036090Y-99117180D03*
X110766090Y-99117180D03*
X109496090Y-99117180D03*
X109496090Y-94290010D03*
X110766090Y-94290010D03*
X112036090Y-94290010D03*
X113306090Y-94290010D03*
%TD*%
D24*
%TO.C,IC4*%
X123001100Y-110998650D03*
X123001100Y-112268650D03*
X123001100Y-113538650D03*
X123001100Y-114808650D03*
X117579110Y-114808650D03*
X117579110Y-113538650D03*
X117579110Y-112268650D03*
X117579110Y-110998650D03*
%TD*%
D15*
%TO.C,C8*%
X166538600Y-92903600D03*
X164463600Y-92903600D03*
%TD*%
D20*
%TO.C,R8*%
X172901110Y-86053620D03*
X172901110Y-88053620D03*
%TD*%
%TO.C,R96*%
X142101100Y-86403600D03*
X142101100Y-88403600D03*
%TD*%
D15*
%TO.C,C30*%
X159138600Y-109503600D03*
X157063600Y-109503600D03*
%TD*%
D16*
%TO.C,C12*%
X140801100Y-96841100D03*
X140801100Y-94766100D03*
%TD*%
D20*
%TO.C,R35*%
X158601100Y-99303600D03*
X158601100Y-101303600D03*
%TD*%
D18*
%TO.C,C13*%
X141863600Y-106403600D03*
X143938600Y-106403600D03*
%TD*%
D25*
%TO.C,PS1*%
X157901100Y-125453600D03*
X157901100Y-126403600D03*
X157901100Y-127353600D03*
X155401100Y-127353600D03*
X155401100Y-126403600D03*
X155401100Y-125453600D03*
%TD*%
D16*
%TO.C,C7*%
X168763600Y-101941100D03*
X168763600Y-99866100D03*
%TD*%
D15*
%TO.C,C15*%
X129901100Y-110803600D03*
X127826100Y-110803600D03*
%TD*%
D13*
%TO.C,R98*%
X135401100Y-78403600D03*
X135401100Y-76403600D03*
%TD*%
D26*
%TO.C,D6*%
X172501100Y-104603600D03*
X167501100Y-104603600D03*
%TD*%
D16*
%TO.C,C11*%
X143301100Y-96841100D03*
X143301100Y-94766100D03*
%TD*%
D27*
%TO.C,L19*%
X112326100Y-83303600D03*
X110276100Y-83303600D03*
%TD*%
D17*
%TO.C,R40*%
X152401100Y-105303600D03*
X150401100Y-105303600D03*
%TD*%
D20*
%TO.C,R118*%
X168201100Y-71403600D03*
X168201100Y-73403600D03*
%TD*%
D13*
%TO.C,R11*%
X173801100Y-96803600D03*
X173801100Y-94803600D03*
%TD*%
%TO.C,R115*%
X133101100Y-113303600D03*
X133101100Y-111303600D03*
%TD*%
D17*
%TO.C,R18*%
X166601100Y-123503600D03*
X164601100Y-123503600D03*
%TD*%
D18*
%TO.C,C69*%
X127963600Y-83203600D03*
X130038600Y-83203600D03*
%TD*%
D28*
%TO.C,L18*%
X124976100Y-77103600D03*
X127026100Y-77103600D03*
%TD*%
D20*
%TO.C,R106*%
X107001100Y-107003600D03*
X107001100Y-109003600D03*
%TD*%
%TO.C,R75*%
X113901100Y-74503600D03*
X113901100Y-76503600D03*
%TD*%
D17*
%TO.C,R39*%
X156501100Y-101603600D03*
X154501100Y-101603600D03*
%TD*%
D28*
%TO.C,L5*%
X155726100Y-121603600D03*
X157776100Y-121603600D03*
%TD*%
D19*
%TO.C,L20*%
X123401100Y-80053600D03*
X123401100Y-82103600D03*
%TD*%
D29*
%TO.C,R80*%
X124501100Y-88603600D03*
X126501100Y-88603600D03*
%TD*%
D20*
%TO.C,R19*%
X166501100Y-107603600D03*
X166501100Y-109603600D03*
%TD*%
D21*
%TO.C,L27*%
X109501100Y-109028600D03*
X109501100Y-106978600D03*
%TD*%
D29*
%TO.C,R49*%
X160151100Y-126703600D03*
X162151100Y-126703600D03*
%TD*%
D28*
%TO.C,L11*%
X141276100Y-75703600D03*
X143326100Y-75703600D03*
%TD*%
%TO.C,L29*%
X116876100Y-98603600D03*
X118926100Y-98603600D03*
%TD*%
D30*
%TO.C,D1*%
X169738600Y-82203600D03*
X169738600Y-87203600D03*
%TD*%
D29*
%TO.C,R100*%
X108601100Y-103503600D03*
X110601100Y-103503600D03*
%TD*%
D20*
%TO.C,R63*%
X138301100Y-76303600D03*
X138301100Y-78303600D03*
%TD*%
D29*
%TO.C,R78*%
X109601100Y-86703600D03*
X111601100Y-86703600D03*
%TD*%
D30*
%TO.C,D5*%
X165701100Y-128703600D03*
X165701100Y-133703600D03*
%TD*%
D20*
%TO.C,R21*%
X168601100Y-122603600D03*
X168601100Y-124603600D03*
%TD*%
D28*
%TO.C,L30*%
X110776100Y-90103600D03*
X112826100Y-90103600D03*
%TD*%
D20*
%TO.C,R116*%
X166401100Y-80903600D03*
X166401100Y-82903600D03*
%TD*%
D29*
%TO.C,R60*%
X145501100Y-75703600D03*
X147501100Y-75703600D03*
%TD*%
D31*
%TO.C,D4*%
X109251100Y-111253600D03*
X109251100Y-113153600D03*
X106951100Y-112203600D03*
%TD*%
D14*
%TO.C,C84*%
X112601100Y-103566100D03*
X112601100Y-105641100D03*
%TD*%
D20*
%TO.C,R42*%
X152101100Y-112403600D03*
X152101100Y-114403600D03*
%TD*%
D17*
%TO.C,R119*%
X119101100Y-102303600D03*
X117101100Y-102303600D03*
%TD*%
D14*
%TO.C,C14*%
X125601100Y-98366100D03*
X125601100Y-100441100D03*
%TD*%
D18*
%TO.C,C21*%
X136663600Y-94503600D03*
X138738600Y-94503600D03*
%TD*%
%TO.C,C81*%
X115063600Y-93503600D03*
X117138600Y-93503600D03*
%TD*%
D20*
%TO.C,R105*%
X121101100Y-99003600D03*
X121101100Y-101003600D03*
%TD*%
D15*
%TO.C,C68*%
X119838600Y-85903600D03*
X117763600Y-85903600D03*
%TD*%
D29*
%TO.C,R79*%
X128001100Y-80003600D03*
X130001100Y-80003600D03*
%TD*%
D20*
%TO.C,R12*%
X171001100Y-99903600D03*
X171001100Y-101903600D03*
%TD*%
%TO.C,R29*%
X173301100Y-122603600D03*
X173301100Y-124603600D03*
%TD*%
D17*
%TO.C,R4*%
X166001100Y-96403600D03*
X164001100Y-96403600D03*
%TD*%
D19*
%TO.C,L12*%
X149201100Y-81778600D03*
X149201100Y-83828600D03*
%TD*%
D15*
%TO.C,C32*%
X154838600Y-108803600D03*
X152763600Y-108803600D03*
%TD*%
D13*
%TO.C,R101*%
X107301100Y-92903600D03*
X107301100Y-90903600D03*
%TD*%
D15*
%TO.C,C10*%
X166138600Y-113303600D03*
X164063600Y-113303600D03*
%TD*%
D20*
%TO.C,R46*%
X112001100Y-108803600D03*
X112001100Y-110803600D03*
%TD*%
%TO.C,R95*%
X132401100Y-81403600D03*
X132401100Y-83403600D03*
%TD*%
%TO.C,R76*%
X125801100Y-81403600D03*
X125801100Y-83403600D03*
%TD*%
D16*
%TO.C,C18*%
X153101100Y-127291100D03*
X153101100Y-125216100D03*
%TD*%
D29*
%TO.C,R99*%
X142001100Y-91603600D03*
X144001100Y-91603600D03*
%TD*%
D32*
%TO.C,U8*%
X115501100Y-82813600D03*
D33*
X115501100Y-81543600D03*
X115501100Y-80273600D03*
X115501100Y-79003600D03*
X120328270Y-79003600D03*
X120328270Y-80273600D03*
X120328270Y-81543600D03*
X120328270Y-82813600D03*
%TD*%
D14*
%TO.C,C79*%
X135001100Y-81466100D03*
X135001100Y-83541100D03*
%TD*%
D20*
%TO.C,R61*%
X150701100Y-76803600D03*
X150701100Y-78803600D03*
%TD*%
D18*
%TO.C,C20*%
X136663600Y-91203600D03*
X138738600Y-91203600D03*
%TD*%
D17*
%TO.C,R84*%
X124301100Y-92203600D03*
X122301100Y-92203600D03*
%TD*%
D14*
%TO.C,C31*%
X161001100Y-99266100D03*
X161001100Y-101341100D03*
%TD*%
D20*
%TO.C,R6*%
X163501100Y-86103600D03*
X163501100Y-88103600D03*
%TD*%
D29*
%TO.C,R83*%
X113701100Y-86203600D03*
X115701100Y-86203600D03*
%TD*%
%TO.C,R102*%
X115301100Y-90103600D03*
X117301100Y-90103600D03*
%TD*%
%TO.C,R112*%
X158001100Y-81003600D03*
X160001100Y-81003600D03*
%TD*%
D20*
%TO.C,R47*%
X114901100Y-114003600D03*
X114901100Y-116003600D03*
%TD*%
D29*
%TO.C,R103*%
X114701100Y-105503600D03*
X116701100Y-105503600D03*
%TD*%
D15*
%TO.C,C83*%
X105038600Y-92203600D03*
X102963600Y-92203600D03*
%TD*%
D20*
%TO.C,R7*%
X163901100Y-99903600D03*
X163901100Y-101903600D03*
%TD*%
%TO.C,R23*%
X171201100Y-127703600D03*
X171201100Y-129703600D03*
%TD*%
D34*
%TO.C,Y2*%
X123051100Y-106803600D03*
X123051100Y-104403600D03*
X124951100Y-104403600D03*
X124951100Y-106803600D03*
%TD*%
D20*
%TO.C,R26*%
X171101100Y-122603600D03*
X171101100Y-124603600D03*
%TD*%
%TO.C,R15*%
X166363600Y-99903600D03*
X166363600Y-101903600D03*
%TD*%
D17*
%TO.C,R10*%
X175301100Y-91003600D03*
X173301100Y-91003600D03*
%TD*%
D15*
%TO.C,C72*%
X124338600Y-95403600D03*
X122263600Y-95403600D03*
%TD*%
D28*
%TO.C,L2*%
X134076100Y-88003600D03*
X136126100Y-88003600D03*
%TD*%
D27*
%TO.C,L17*%
X118626100Y-75703600D03*
X116576100Y-75703600D03*
%TD*%
D17*
%TO.C,R82*%
X123101100Y-77103600D03*
X121101100Y-77103600D03*
%TD*%
D35*
%TO.C,IC6*%
X156951100Y-103703600D03*
X156951100Y-104653600D03*
X156951100Y-105603600D03*
X154451100Y-105603600D03*
X154451100Y-103703600D03*
%TD*%
D36*
%TO.C,IC1*%
X168201130Y-91003600D03*
X168701100Y-91003600D03*
X169201130Y-91003600D03*
X169701100Y-91003600D03*
X170201130Y-91003600D03*
X170701100Y-91003600D03*
X171201120Y-91003600D03*
X171701100Y-91003600D03*
X171701100Y-96403640D03*
X171201120Y-96403640D03*
X170701100Y-96403640D03*
X170201130Y-96403640D03*
X169701100Y-96403640D03*
X169201130Y-96403640D03*
X168701100Y-96403640D03*
X168201130Y-96403640D03*
D37*
X169951140Y-93703620D03*
%TD*%
D20*
%TO.C,R107*%
X106701100Y-101003600D03*
X106701100Y-103003600D03*
%TD*%
D35*
%TO.C,IC5*%
X159351100Y-112853600D03*
X159351100Y-113803600D03*
X159351100Y-114753600D03*
X156851100Y-114753600D03*
X156851100Y-112853600D03*
%TD*%
D20*
%TO.C,R109*%
X112001100Y-114003600D03*
X112001100Y-116003600D03*
%TD*%
D13*
%TO.C,R30*%
X168701100Y-110903600D03*
X168701100Y-108903600D03*
%TD*%
D20*
%TO.C,R111*%
X164701100Y-76703600D03*
X164701100Y-78703600D03*
%TD*%
D13*
%TO.C,R43*%
X154701100Y-114803600D03*
X154701100Y-112803600D03*
%TD*%
D15*
%TO.C,C70*%
X112238600Y-79903600D03*
X110163600Y-79903600D03*
%TD*%
D14*
%TO.C,C47*%
X125601100Y-113666100D03*
X125601100Y-115741100D03*
%TD*%
D29*
%TO.C,R120*%
X119901100Y-88903600D03*
X121901100Y-88903600D03*
%TD*%
D16*
%TO.C,C85*%
X123401100Y-100941100D03*
X123401100Y-98866100D03*
%TD*%
D20*
%TO.C,R24*%
X173601100Y-108503600D03*
X173601100Y-110503600D03*
%TD*%
D36*
%TO.C,IC2*%
X168551070Y-114003600D03*
X169051090Y-114003600D03*
X169551070Y-114003600D03*
X170051090Y-114003600D03*
X170551070Y-114003600D03*
X171051090Y-114003600D03*
X171551110Y-114003600D03*
X172051090Y-114003600D03*
X172051090Y-119403640D03*
X171551110Y-119403640D03*
X171051090Y-119403640D03*
X170551070Y-119403640D03*
X170051090Y-119403640D03*
X169551070Y-119403640D03*
X169051090Y-119403640D03*
X168551070Y-119403640D03*
D37*
X170301080Y-116703620D03*
%TD*%
D20*
%TO.C,R113*%
X158601100Y-76503600D03*
X158601100Y-78503600D03*
%TD*%
D15*
%TO.C,C17*%
X134638600Y-90903600D03*
X132563600Y-90903600D03*
%TD*%
D32*
%TO.C,U6*%
X141387525Y-81308625D03*
D33*
X141387525Y-80038625D03*
X141387525Y-78768625D03*
X141387525Y-77498625D03*
X146214695Y-77498625D03*
X146214695Y-78768625D03*
X146214695Y-80038625D03*
X146214695Y-81308625D03*
%TD*%
D14*
%TO.C,C9*%
X168701100Y-127666100D03*
X168701100Y-129741100D03*
%TD*%
D20*
%TO.C,R5*%
X166401100Y-86103600D03*
X166401100Y-88103600D03*
%TD*%
D14*
%TO.C,C62*%
X150301100Y-92066100D03*
X150301100Y-94141100D03*
%TD*%
D13*
%TO.C,R77*%
X111001100Y-76503600D03*
X111001100Y-74503600D03*
%TD*%
D14*
%TO.C,C23*%
X162601100Y-121466100D03*
X162601100Y-123541100D03*
%TD*%
D20*
%TO.C,R20*%
X163101100Y-107603600D03*
X163101100Y-109603600D03*
%TD*%
M02*
