M48
; DRILL file {KiCad 8.0.1} date 2024-09-19T19:56:12+0300
; FORMAT={-:-/ absolute / metric / decimal}
; #@! TF.CreationDate,2024-09-19T19:56:12+03:00
; #@! TF.GenerationSoftware,Kicad,Pcbnew,8.0.1
; #@! TF.FileFunction,Plated,1,4,PTH
FMAT,2
METRIC
; #@! TA.AperFunction,Plated,PTH,ViaDrill
T1C0.400
; #@! TA.AperFunction,Plated,PTH,ComponentDrill
T2C0.700
; #@! TA.AperFunction,Plated,PTH,ComponentDrill
T3C1.000
; #@! TA.AperFunction,Plated,PTH,ComponentDrill
T4C1.800
; #@! TA.AperFunction,Plated,PTH,ComponentDrill
T5C4.300
%
G90
G05
T1
X100.001Y-88.904
X100.101Y-69.704
X100.101Y-71.904
X100.101Y-76.004
X100.101Y-78.604
X100.101Y-131.504
X100.101Y-133.804
X100.101Y-138.304
X100.101Y-141.104
X100.501Y-104.504
X102.801Y-87.563
X103.001Y-125.704
X103.201Y-85.804
X104.101Y-83.704
X104.201Y-81.604
X104.831Y-119.673
X105.301Y-112.204
X105.501Y-97.204
X105.601Y-114.404
X106.001Y-84.504
X106.101Y-86.204
X106.601Y-116.904
X107.501Y-78.604
X108.101Y-79.804
X108.201Y-109.904
X108.501Y-105.004
X108.801Y-69.704
X108.801Y-114.804
X109.001Y-96.604
X109.101Y-112.204
X109.201Y-91.004
X109.301Y-101.604
X109.601Y-76.404
X109.901Y-119.904
X109.901Y-122.804
X110.101Y-131.504
X110.101Y-133.804
X110.101Y-138.304
X110.101Y-141.104
X111.491Y-81.902
X111.501Y-96.704
X111.622Y-104.589
X111.701Y-92.204
X112.201Y-101.104
X112.801Y-69.004
X112.801Y-72.404
X112.866Y-107.676
X113.101Y-133.804
X113.101Y-138.304
X113.301Y-96.404
X113.401Y-78.104
X113.501Y-112.404
X114.301Y-118.404
X114.301Y-122.004
X114.401Y-70.704
X114.701Y-91.504
X115.101Y-112.404
X115.201Y-136.004
X115.301Y-84.304
X115.606Y-118.304
X116.201Y-108.526
X116.501Y-91.504
X116.501Y-127.904
X116.801Y-96.504
X116.801Y-116.404
X117.401Y-77.704
X117.401Y-88.379
X117.501Y-81.604
X117.601Y-73.304
X117.601Y-119.504
X117.801Y-84.204
X118.401Y-122.704
X118.501Y-103.604
X118.701Y-120.804
X118.85Y-95.573
X118.901Y-100.004
X119.046Y-109.339
X119.101Y-115.104
X119.301Y-113.204
X119.401Y-116.104
X119.501Y-90.204
X119.601Y-77.904
X120.085Y-95.204
X120.101Y-97.904
X121.201Y-123.014
X121.485Y-105.804
X121.601Y-111.604
X121.801Y-75.504
X121.951Y-83.504
X122.001Y-82.204
X122.101Y-80.904
X122.101Y-90.304
X122.143Y-79.354
X122.288Y-98.229
X122.401Y-93.904
X122.601Y-129.804
X122.801Y-135.404
X123.101Y-73.904
X123.101Y-116.804
X123.691Y-87.154
X124.001Y-83.504
X124.042Y-108.018
X124.051Y-90.504
X124.101Y-119.999
X124.101Y-125.009
X124.201Y-115.604
X125.301Y-78.904
X125.701Y-72.104
X125.701Y-129.404
X125.701Y-135.504
X126.001Y-117.804
X126.101Y-121.479
X126.101Y-123.404
X126.201Y-91.204
X126.401Y-103.504
X126.401Y-126.904
X126.701Y-112.604
X126.849Y-109.417
X126.901Y-95.729
X126.951Y-97.304
X127.101Y-108.104
X127.201Y-81.804
X127.201Y-89.832
X127.501Y-113.804
X127.501Y-115.604
X127.701Y-125.104
X127.801Y-120.004
X127.901Y-74.604
X127.901Y-109.004
X128.201Y-135.504
X128.401Y-129.204
X129.051Y-115.304
X129.101Y-81.904
X129.101Y-90.004
X129.201Y-78.404
X129.701Y-140.904
X129.801Y-105.204
X129.802Y-99.705
X129.901Y-114.704
X130.501Y-116.504
X130.701Y-113.804
X130.701Y-121.204
X130.801Y-98.504
X130.801Y-124.004
X131.001Y-69.004
X131.101Y-101.404
X131.201Y-74.804
X131.437Y-80.375
X131.701Y-87.204
X131.801Y-117.204
X132.301Y-102.004
X132.301Y-105.654
X132.801Y-116.504
X133.376Y-89.504
X133.701Y-120.004
X133.801Y-125.004
X134.401Y-74.904
X134.401Y-100.104
X134.551Y-112.154
X134.701Y-98.304
X134.801Y-95.304
X134.901Y-129.604
X135.201Y-126.979
X135.401Y-113.304
X135.401Y-121.504
X135.501Y-118.004
X135.501Y-123.504
X135.601Y-135.204
X135.701Y-99.404
X136.501Y-101.304
X136.501Y-115.804
X136.601Y-82.304
X136.701Y-77.404
X136.801Y-106.704
X137.001Y-104.404
X137.201Y-103.104
X137.201Y-125.004
X137.417Y-105.786
X137.601Y-119.929
X138.001Y-99.604
X138.101Y-135.304
X138.201Y-112.304
X138.201Y-129.004
X138.501Y-92.804
X138.601Y-109.704
X138.701Y-95.904
X138.901Y-97.904
X139.301Y-80.404
X139.501Y-77.404
X140.001Y-107.204
X140.101Y-121.204
X140.501Y-82.504
X140.501Y-124.204
X140.776Y-89.401
X140.801Y-86.544
X141.601Y-93.504
X141.601Y-98.104
X141.701Y-104.904
X142.001Y-73.704
X142.001Y-95.804
X142.501Y-116.404
X143.001Y-134.104
X143.201Y-90.204
X143.201Y-118.404
X143.301Y-78.204
X143.401Y-81.604
X143.401Y-84.704
X143.501Y-86.504
X143.501Y-93.004
X144.701Y-73.904
X144.701Y-114.704
X144.801Y-112.304
X145.001Y-121.404
X145.001Y-126.704
X145.401Y-91.004
X146.601Y-104.804
X146.601Y-108.604
X148.001Y-124.004
X148.301Y-95.104
X148.501Y-135.304
X148.601Y-77.204
X148.601Y-128.704
X148.701Y-85.504
X148.801Y-93.104
X149.001Y-97.114
X149.601Y-90.504
X149.801Y-121.404
X150.101Y-118.404
X150.301Y-113.904
X150.601Y-102.504
X150.901Y-128.704
X151.001Y-108.304
X151.401Y-124.504
X151.901Y-77.804
X152.101Y-107.204
X152.301Y-82.304
X153.101Y-80.604
X153.101Y-103.704
X153.301Y-135.404
X153.501Y-113.704
X153.701Y-128.704
X154.001Y-111.404
X154.101Y-116.304
X154.101Y-119.304
X154.951Y-91.705
X154.951Y-95.654
X155.501Y-140.704
X155.701Y-94.796
X155.801Y-110.204
X155.801Y-128.904
X155.901Y-113.804
X156.055Y-93.861
X156.301Y-69.004
X156.401Y-85.704
X156.481Y-88.684
X156.601Y-100.104
X157.451Y-96.225
X157.801Y-116.204
X157.801Y-123.204
X158.001Y-82.404
X158.001Y-92.404
X158.001Y-108.304
X158.085Y-94.087
X158.099Y-97.102
X158.301Y-135.304
X158.801Y-122.604
X158.901Y-106.348
X159.001Y-119.704
X159.151Y-103.134
X159.527Y-98.004
X160.151Y-85.504
X160.201Y-75.604
X160.601Y-90.154
X160.718Y-100.567
X160.871Y-93.334
X160.941Y-94.954
X161.001Y-91.654
X161.201Y-96.004
X161.301Y-135.304
X161.401Y-114.804
X161.454Y-97.204
X161.801Y-81.004
X162.201Y-86.004
X162.201Y-112.604
X162.401Y-116.704
X162.451Y-103.714
X162.601Y-89.404
X162.716Y-96.755
X162.744Y-92.17
X162.807Y-115.79
X162.901Y-77.204
X163.011Y-94.133
X163.075Y-93.114
X163.401Y-80.804
X163.501Y-128.004
X163.601Y-104.104
X163.601Y-135.304
X164.301Y-115.004
X164.301Y-118.304
X164.382Y-98.491
X164.501Y-108.104
X164.601Y-75.304
X164.701Y-82.804
X164.701Y-107.104
X164.701Y-111.604
X164.901Y-86.104
X165.132Y-100.6
X165.176Y-104.304
X166.401Y-71.704
X167.001Y-136.004
X167.424Y-90.004
X167.501Y-96.504
X167.501Y-114.904
X167.676Y-99.906
X167.701Y-120.304
X167.746Y-117.804
X168.001Y-83.604
X168.151Y-86.354
X168.401Y-138.204
X168.601Y-107.704
X168.701Y-126.104
X168.701Y-134.104
X169.201Y-77.104
X169.849Y-100.733
X169.901Y-104.104
X170.201Y-111.004
X170.501Y-108.154
X170.701Y-132.204
X171.301Y-69.304
X171.301Y-71.604
X171.301Y-75.704
X171.301Y-133.704
X171.301Y-138.204
X171.301Y-141.004
X171.801Y-107.403
X172.401Y-100.704
X172.451Y-97.004
X172.499Y-95.193
X172.501Y-80.304
X172.501Y-81.604
X172.501Y-103.104
X172.701Y-128.804
X172.901Y-126.404
X173.001Y-112.704
X173.671Y-116.073
X174.501Y-115.104
X175.007Y-105.198
X175.051Y-106.504
X175.051Y-108.504
X175.601Y-129.804
X175.65Y-112.104
X176.401Y-82.504
X176.401Y-85.904
X176.613Y-107.26
X176.756Y-91.848
X177.801Y-90.204
X178.101Y-89.104
X178.201Y-80.004
X178.801Y-90.804
X178.801Y-107.104
X179.301Y-109.904
X181.101Y-114.904
X181.301Y-95.104
X181.501Y-69.304
X181.501Y-71.704
X181.501Y-76.204
X181.501Y-78.204
X181.501Y-131.404
X181.501Y-133.704
X181.501Y-138.204
X181.501Y-141.004
T2
X115.001Y-95.604
X115.001Y-98.204
X115.001Y-100.804
X115.001Y-103.404
X121.601Y-85.304
X124.201Y-85.304
X126.801Y-85.304
X129.401Y-85.304
X132.001Y-85.304
X134.601Y-85.304
X136.901Y-110.904
X137.201Y-85.304
X139.401Y-88.704
X139.801Y-85.304
X149.801Y-130.104
X151.201Y-84.004
X154.801Y-130.104
X159.901Y-130.104
X160.501Y-105.204
X160.501Y-107.804
X162.101Y-83.804
X162.601Y-130.104
X165.601Y-125.704
T3
X104.0Y-95.7
X104.0Y-98.24
X104.0Y-100.78
X104.0Y-103.32
X104.0Y-105.86
X104.0Y-108.4
X104.0Y-110.94
X104.0Y-113.48
X121.82Y-73.0
X121.82Y-137.0
X124.36Y-73.0
X124.36Y-137.0
X126.9Y-73.0
X126.9Y-137.0
X129.44Y-73.0
X129.44Y-137.0
X131.98Y-73.0
X131.98Y-137.0
X134.52Y-73.0
X134.52Y-137.0
X137.06Y-73.0
X137.06Y-137.0
X139.6Y-73.0
X139.6Y-137.0
X146.626Y-92.784
X146.626Y-95.324
X146.626Y-97.864
X146.626Y-100.404
X146.626Y-110.904
X146.626Y-113.444
X146.626Y-115.984
X146.626Y-118.524
X147.22Y-73.0
X147.22Y-137.0
X149.76Y-73.0
X149.76Y-137.0
X152.3Y-73.0
X152.3Y-137.0
X154.84Y-73.0
X154.84Y-137.0
X157.38Y-73.0
X157.38Y-137.0
X159.92Y-73.0
X159.92Y-137.0
X162.46Y-73.0
X162.46Y-137.0
X165.0Y-73.0
X165.0Y-137.0
X177.6Y-95.7
X177.6Y-98.24
X177.6Y-100.78
X177.6Y-103.32
X177.6Y-105.86
X177.6Y-108.4
X177.6Y-110.94
X177.6Y-113.48
T4
X152.051Y-116.729
X152.051Y-120.129
X165.551Y-116.729
X165.551Y-120.129
T5
X104.9Y-74.0
X104.9Y-136.0
X176.7Y-74.0
X176.7Y-136.0
M30
