M48
; DRILL file {KiCad 8.0.1} date 2024-08-30T20:25:51+0300
; FORMAT={-:-/ absolute / metric / decimal}
; #@! TF.CreationDate,2024-08-30T20:25:51+03:00
; #@! TF.GenerationSoftware,Kicad,Pcbnew,8.0.1
; #@! TF.FileFunction,NonPlated,1,4,NPTH
FMAT,2
METRIC
; #@! TA.AperFunction,NonPlated,NPTH,ComponentDrill
T1C0.970
; #@! TA.AperFunction,NonPlated,NPTH,ComponentDrill
T2C1.780
%
G90
G05
T1
X124.831Y-118.694
X124.831Y-121.234
X124.831Y-123.774
X124.831Y-126.314
X127.371Y-118.694
X127.371Y-121.234
X127.371Y-123.774
X127.371Y-126.314
X134.231Y-118.694
X134.231Y-121.234
X134.231Y-123.774
X134.231Y-126.314
X136.771Y-118.694
X136.771Y-121.234
X136.771Y-123.774
X136.771Y-126.314
T2
X126.101Y-119.964
X126.101Y-125.044
X135.501Y-119.964
X135.501Y-125.044
M30
